<svg xmlns="http://www.w3.org/2000/svg" width="23.4" height="25.401" viewBox="0 0 23.4 25.401">
  <g id="Корзинка" transform="translate(0.7 0.7)">
    <g id="Сгруппировать_3" data-name="Сгруппировать 3">
      <g id="Контур_1" transform="translate(0 5.106)">
        <path id="Контур_3" data-name="Контур 3" d="M-16.857,0H-1.518A1.492,1.492,0,0,1-.031,1.5h0L2,17.5A1.492,1.492,0,0,1,.513,19H-18.513A1.492,1.492,0,0,1-20,17.5h0l2.031-16C-17.969.67-17.68,0-16.857,0Z" transform="translate(20 -0.105)" fill="none" stroke="#141414" stroke-width="1.4"/>
      </g>
      <ellipse id="Эллипс_3" data-name="Эллипс 3" cx="1.575" cy="1.699" rx="1.575" ry="1.699" transform="translate(4.809 8.164)" fill="none"/>
      <circle id="Эллипс_4" data-name="Эллипс 4" cx="1" cy="1" r="1" transform="translate(6 9)" fill="none" stroke="#141414" stroke-width="1.4"/>
      <ellipse id="Эллипс_5" data-name="Эллипс 5" cx="0.695" cy="0.681" rx="0.695" ry="0.681" transform="translate(13 8)" fill="none"/>
      <circle id="Эллипс_6" data-name="Эллипс 6" cx="1" cy="1" r="1" transform="translate(14 9)" fill="none" stroke="#141414" stroke-width="1.4"/>
      <path id="Контур_2" d="M1893.5-656.4h0V-659a4.216,4.216,0,0,1,4-4.4,4.216,4.216,0,0,1,4,4.4v2.6" transform="translate(-1886.5 663.4)" fill="none" stroke="#141414" stroke-width="1.4"/>
      <line id="Линия_1" y2="3" transform="translate(7 6.003)" fill="none" stroke="#141414" stroke-width="1.4"/>
      <line id="Линия_2" y2="3" transform="translate(15.001 6.003)" fill="none" stroke="#141414" stroke-width="1.4"/>
    </g>
  </g>
</svg>
