<svg xmlns="http://www.w3.org/2000/svg" width="31.031" height="21.213" viewBox="0 0 31.031 21.213">
  <g id="email" transform="translate(0 -81)">
    <g id="Сгруппировать_25" data-name="Сгруппировать 25" transform="translate(4.59 85.165)">
      <g id="Сгруппировать_24" data-name="Сгруппировать 24">
        <path id="Контур_27" data-name="Контур 27" d="M97.361,159.869l-5.025-5.908,4.463-2.547a.909.909,0,1,0-.9-1.579l-9.247,5.275-9.247-5.275a.909.909,0,1,0-.9,1.579l4.463,2.547-5.025,5.908a.909.909,0,0,0,1.385,1.178l5.247-6.169,3.627,2.069a.909.909,0,0,0,.9,0l3.627-2.069,5.247,6.169a.909.909,0,0,0,1.385-1.178Z" transform="translate(-75.726 -149.716)"/>
      </g>
    </g>
    <g id="Сгруппировать_27" data-name="Сгруппировать 27" transform="translate(0 81)">
      <g id="Сгруппировать_26" data-name="Сгруппировать 26">
        <path id="Контур_28" data-name="Контур 28" d="M28.3,81H2.727A2.73,2.73,0,0,0,0,83.727V99.485a2.73,2.73,0,0,0,2.727,2.727H28.3a2.73,2.73,0,0,0,2.727-2.727V83.727A2.73,2.73,0,0,0,28.3,81Zm.909,18.485a.91.91,0,0,1-.909.909H2.727a.91.91,0,0,1-.909-.909V83.727a.91.91,0,0,1,.909-.909H28.3a.91.91,0,0,1,.909.909Z" transform="translate(0 -81)"/>
      </g>
    </g>
  </g>
</svg>
