<svg id="heart_2_" data-name="heart (2)" xmlns="http://www.w3.org/2000/svg" width="26" height="23" viewBox="0 0 26 23">
  <path id="Контур_17" data-name="Контур 17" d="M23.9,30.636a7.168,7.168,0,0,0-10.181.006l-.711.715-.722-.727A7.213,7.213,0,0,0,2.117,40.863L12.469,51.279a.735.735,0,0,0,1.047.006l10.374-10.4A7.289,7.289,0,0,0,23.9,30.636Zm-1.058,9.19L12.992,49.7,3.164,39.81a5.769,5.769,0,0,1-.006-8.125,5.684,5.684,0,0,1,8.075.006l1.246,1.253a.739.739,0,0,0,1.053,0L14.767,31.7a5.728,5.728,0,0,1,8.075,8.125Z" transform="translate(0 -28.501)"/>
</svg>
