<svg xmlns="http://www.w3.org/2000/svg" width="21" height="21" viewBox="0 0 21 21">
  <path id="language" d="M10.5,0A10.5,10.5,0,1,0,21,10.5,10.5,10.5,0,0,0,10.5,0Zm9.081,14.178-2.986.515a15.669,15.669,0,0,0,.549-3.844h3.147A9.735,9.735,0,0,1,19.581,14.178ZM.709,10.85H3.856a15.669,15.669,0,0,0,.549,3.844l-2.986-.515A9.735,9.735,0,0,1,.709,10.85Zm.71-4.028,2.986-.515a15.669,15.669,0,0,0-.549,3.844H.709A9.735,9.735,0,0,1,1.419,6.822Zm9.431-1.2a24.078,24.078,0,0,1,3.752.343l1.235.213a15.024,15.024,0,0,1,.607,3.975H10.85Zm3.871-.347A24.809,24.809,0,0,0,10.85,4.92V.72c2.007.193,3.75,2.03,4.737,4.7ZM10.15,4.92a24.8,24.8,0,0,0-3.871.353l-.866.15C6.4,2.748,8.143.91,10.15.718ZM6.4,5.962A24.071,24.071,0,0,1,10.15,5.62v4.53H4.555a15.024,15.024,0,0,1,.607-3.975ZM4.555,10.85H10.15v4.53A24.077,24.077,0,0,1,6.4,15.038l-1.235-.213A15.024,15.024,0,0,1,4.555,10.85Zm1.723,4.878a24.893,24.893,0,0,0,3.871.355v4.2c-2.007-.193-3.75-2.03-4.737-4.7Zm4.571.355a24.89,24.89,0,0,0,3.871-.355l.866-.15c-.988,2.674-2.731,4.512-4.737,4.7ZM14.6,15.038a24.071,24.071,0,0,1-3.752.343V10.85h5.595a15.024,15.024,0,0,1-.607,3.975Zm2.543-4.888a15.669,15.669,0,0,0-.549-3.844l2.986.515a9.735,9.735,0,0,1,.71,3.328Zm2.083-4.1-2.862-.494A9.651,9.651,0,0,0,13.58,1.2,9.847,9.847,0,0,1,19.227,6.05ZM7.42,1.2A9.651,9.651,0,0,0,4.635,5.556L1.773,6.05A9.846,9.846,0,0,1,7.42,1.2ZM1.773,14.95l2.862.494A9.651,9.651,0,0,0,7.42,19.8,9.846,9.846,0,0,1,1.773,14.95ZM13.58,19.8a9.651,9.651,0,0,0,2.785-4.358l2.862-.494A9.847,9.847,0,0,1,13.58,19.8Zm0,0" fill="#141414" opacity="0.999"/>
</svg>
