<svg xmlns="http://www.w3.org/2000/svg" width="21" height="24" viewBox="0 0 21 24">
  <g id="Вход_Регистрация" data-name="Вход/Регистрация" transform="translate(-5 0)">
    <g id="Сгруппировать_8" data-name="Сгруппировать 8" transform="translate(7 24.109)">
      <g id="user" transform="translate(-2 -24.109)">
        <path id="Контур_18" data-name="Контур 18" d="M127.329,0A6.3,6.3,0,0,0,121,6.256a6.33,6.33,0,0,0,12.659,0A6.3,6.3,0,0,0,127.329,0Zm0,11.122a4.866,4.866,0,1,1,4.923-4.866,4.895,4.895,0,0,1-4.923,4.866Z" transform="translate(-116.829)"/>
        <path id="Контур_19" data-name="Контур 19" d="M43.452,301h-3.9a10.079,10.079,0,0,0-8.109,4.045A2.1,2.1,0,0,0,31,306.326v4.438a.014.014,0,0,0,.014.013H51.986a.014.014,0,0,0,.014-.013v-4.438a2.1,2.1,0,0,0-.439-1.281A10.08,10.08,0,0,0,43.452,301Zm7.148,8.388H32.414a.013.013,0,0,1-.014-.013V306.8a2.086,2.086,0,0,1,.5-1.358,8.737,8.737,0,0,1,6.648-3.048h3.9a8.734,8.734,0,0,1,6.924,3.388,1.057,1.057,0,0,1,.224.646Z" transform="translate(-31 -286.778)"/>
      </g>
    </g>
  </g>
</svg>
