<svg xmlns="http://www.w3.org/2000/svg" width="88.849" height="23.848" viewBox="0 0 88.849 23.848">
  <g id="Vendy" transform="translate(-10201.999 -21167.736)">
    <path id="Path_815" data-name="Path 815" d="M28113,21191.584h3.3v-20.8h5.98c2.508,0,3.832,1.188,3.832,3.7v10.58c0,1.617-.84,3.057-1.98,3.334a44.492,44.492,0,0,1-6.391.268l2.027,2.922h3.145a7.5,7.5,0,0,0,4.934-1.906c1.32-1.229,1.785-2.818,1.785-5.252v-9.311c0-3.93-1.371-6.273-4.758-6.979-2.277-.469-8.785-.4-11.879-.385Z" transform="translate(-17857.283 -0.002)" fill-rule="evenodd"/>
    <path id="Path_816" data-name="Path 816" d="M22001,21195.832h3.385l.035-18.066,8.873,18.066h3.643l-12.158-23.834H22001Z" transform="translate(-11763.612 -4.248)" fill-rule="evenodd"/>
    <path id="Path_817" data-name="Path 817" d="M16432,21195.832h14.352v-2.807l-10.846-.027V21175l10.846-.031V21172H16432Z" transform="translate(-6211.316 -4.248)" fill-rule="evenodd"/>
    <path id="Path_818" data-name="Path 818" d="M10208.325,21195.83h3.614L10205.5,21172h-3.5Z" transform="translate(-0.001 -4.248)" fill-rule="evenodd"/>
    <path id="Path_819" data-name="Path 819" d="M33751.445,21195.832h3.313l.047-9.291-7.516-14.543H33744l7.438,14.578Z" transform="translate(-23471.395 -4.248)" fill-rule="evenodd"/>
    <path id="Path_820" data-name="Path 820" d="M26165,21186.2h3.49V21172H26165Z" transform="translate(-15915.125 -4.248)" fill-rule="evenodd"/>
    <path id="Path_821" data-name="Path 821" d="M13117,21186.918h3.479l4.067-14.92h-3.594Z" transform="translate(-2906.258 -4.248)" fill-rule="evenodd"/>
    <path id="Path_822" data-name="Path 822" d="M37070,21184.113h3.145l5.125-10.109h-3.445l-3.613,7.5Z" transform="translate(-26787.422 -6.248)" fill-rule="evenodd"/>
    <path id="Path_823" data-name="Path 823" d="M18085,24686.857h4.891l0-2.852H18083Z" transform="translate(-7857.365 -3505.723)" fill-rule="evenodd"/>
  </g>
</svg>
